<?xml version="1.0" encoding="UTF-8"?><svg id="Calque_5" xmlns="http://www.w3.org/2000/svg" xmlns:xlink="http://www.w3.org/1999/xlink" viewBox="0 0 175 55"><defs><style>.cls-1{fill:url(#Dégradé_sans_nom_36);}.cls-2{fill:url(#Nouvelle_nuance_de_dégradé_1_2);}.cls-3{fill:url(#Nouvelle_nuance_de_dégradé_1);}.cls-4{fill:url(#Dégradé_sans_nom_19);}.cls-5{fill:#ececec;}</style><linearGradient id="Dégradé_sans_nom_19" x1="89.36" y1="20.89" x2="162.13" y2="20.89" gradientUnits="userSpaceOnUse"><stop offset="0" stop-color="#dc5539"/><stop offset="1" stop-color="#ff4621"/></linearGradient><linearGradient id="Nouvelle_nuance_de_dégradé_1" x1="2.93" y1="33.13" x2="57" y2="33.13" gradientUnits="userSpaceOnUse"><stop offset="0" stop-color="#ff4621"/><stop offset="1" stop-color="#dc5539"/></linearGradient><linearGradient id="Dégradé_sans_nom_36" x1="70.04" y1="46.45" x2="27.96" y2="46.45" gradientUnits="userSpaceOnUse"><stop offset="0" stop-color="#00965b"/><stop offset="1" stop-color="#07df89"/></linearGradient><linearGradient id="Nouvelle_nuance_de_dégradé_1_2" x1="100.96" y1="17.21" x2="143.04" y2="17.21" gradientUnits="userSpaceOnUse"><stop offset="0" stop-color="#00965b"/><stop offset="1" stop-color="#07df89"/></linearGradient></defs><g><path class="cls-5" d="M26.25,27.61v4.69c0,1.12-.3,1.96-.89,2.51-.6,.56-1.48,.83-2.65,.83s-2.04-.28-2.64-.83c-.6-.56-.9-1.39-.9-2.51v-4.69h2.08v4.73c0,.57,.12,.99,.37,1.27,.24,.28,.61,.42,1.1,.42s.87-.14,1.11-.42c.24-.28,.37-.7,.37-1.27v-4.73h2.06Z"/><path class="cls-5" d="M29.91,33.93h3.97v1.6h-6.04v-7.92h2.06v6.32Z"/><path class="cls-5" d="M40.1,27.61v1.6h-2.58v6.32h-2.06v-6.32h-2.59v-1.6h7.24Z"/><path class="cls-5" d="M45.05,27.61c.94,0,1.68,.22,2.2,.67,.52,.44,.79,1.03,.79,1.77,0,.81-.26,1.42-.78,1.85-.52,.42-1.25,.64-2.2,.64l-.19,.11h-1.57v2.89h-2.03v-7.92h3.78Zm-.29,3.56c.4,0,.7-.08,.9-.24,.2-.16,.3-.42,.3-.77s-.1-.6-.3-.76c-.2-.16-.5-.24-.9-.24h-1.46v2h1.46Zm1.21,.43l2.53,3.92h-2.28l-2.03-3.47,1.78-.46Z"/><path class="cls-5" d="M48.71,35.53l2.78-7.92h2.47l2.77,7.92h-2.12l-1.55-5.09-.35-1.25h-.02l-.32,1.24-1.58,5.1h-2.08Zm1.81-1.79v-1.4h4.4v1.4h-4.4Z"/><path class="cls-5" d="M66.83,27.61v7.92h-1.82v-3.64l.06-2.44h-.02l-1.96,6.07h-1.67l-1.96-6.07h-.02l.06,2.44v3.64h-1.84v-7.92h2.94l1.25,4.03,.44,1.68h.02l.46-1.67,1.24-4.04h2.82Z"/><path class="cls-5" d="M72.13,27.49c.8,0,1.49,.16,2.07,.49,.58,.32,1.03,.79,1.34,1.4,.31,.61,.47,1.34,.47,2.2s-.16,1.59-.47,2.2c-.31,.61-.76,1.07-1.34,1.4s-1.27,.49-2.07,.49-1.49-.16-2.08-.49c-.58-.32-1.03-.79-1.34-1.4-.31-.61-.47-1.34-.47-2.2s.16-1.59,.47-2.2c.31-.61,.76-1.07,1.34-1.4,.58-.32,1.28-.49,2.08-.49Zm0,1.62c-.38,0-.71,.09-.97,.28-.26,.18-.46,.46-.6,.82-.14,.36-.21,.82-.21,1.36s.07,.99,.21,1.36c.13,.37,.34,.64,.6,.83,.26,.18,.59,.28,.97,.28s.71-.09,.97-.28c.26-.18,.46-.46,.59-.83,.14-.37,.21-.82,.21-1.36s-.07-1-.21-1.36-.33-.64-.59-.82c-.26-.18-.58-.28-.97-.28Z"/><path class="cls-5" d="M83.76,27.61v1.6h-2.58v6.32h-2.06v-6.32h-2.59v-1.6h7.24Z"/><path class="cls-5" d="M87,27.61v7.92h-2.06v-7.92h2.06Z"/><path class="cls-5" d="M92.31,27.49c.8,0,1.49,.16,2.07,.49,.58,.32,1.03,.79,1.34,1.4,.31,.61,.47,1.34,.47,2.2s-.16,1.59-.47,2.2c-.31,.61-.76,1.07-1.34,1.4s-1.27,.49-2.07,.49-1.49-.16-2.08-.49-1.03-.79-1.34-1.4c-.31-.61-.47-1.34-.47-2.2s.16-1.59,.47-2.2c.31-.61,.76-1.07,1.34-1.4,.58-.32,1.28-.49,2.08-.49Zm0,1.62c-.38,0-.71,.09-.97,.28-.26,.18-.46,.46-.6,.82-.14,.36-.2,.82-.2,1.36s.07,.99,.2,1.36c.14,.37,.34,.64,.6,.83,.26,.18,.59,.28,.97,.28s.71-.09,.97-.28c.26-.18,.46-.46,.59-.83,.14-.37,.2-.82,.2-1.36s-.07-1-.2-1.36c-.14-.36-.33-.64-.59-.82-.26-.18-.58-.28-.97-.28Z"/><path class="cls-5" d="M104.74,27.61v7.92h-2.29l-2.46-4.28-.6-1.18h-.01l.05,1.46v4h-1.82v-7.92h2.29l2.46,4.28,.6,1.18h.01l-.05-1.46v-4h1.82Z"/><path class="cls-5" d="M116.94,33.26c-.15,.55-.4,1.01-.73,1.36-.34,.36-.74,.62-1.2,.78s-.98,.25-1.54,.25c-.8,0-1.49-.16-2.08-.49s-1.03-.79-1.34-1.4c-.31-.61-.47-1.34-.47-2.2s.16-1.59,.47-2.2c.31-.61,.76-1.07,1.34-1.4,.58-.32,1.27-.49,2.06-.49,.55,0,1.06,.08,1.52,.23,.46,.16,.86,.39,1.18,.71s.55,.73,.68,1.24l-1.81,.73c-.11-.5-.29-.84-.55-1.02-.25-.18-.57-.28-.95-.28s-.7,.09-.98,.28c-.28,.18-.49,.46-.64,.82-.15,.36-.22,.82-.22,1.36s.07,.99,.2,1.36c.14,.37,.34,.64,.62,.83,.28,.18,.62,.28,1.03,.28,.38,0,.71-.11,.98-.32,.27-.21,.45-.54,.55-.98l1.87,.53Z"/><path class="cls-5" d="M121.65,27.49c.8,0,1.49,.16,2.07,.49,.58,.32,1.03,.79,1.34,1.4,.31,.61,.47,1.34,.47,2.2s-.16,1.59-.47,2.2c-.31,.61-.76,1.07-1.34,1.4s-1.27,.49-2.07,.49-1.49-.16-2.08-.49-1.03-.79-1.34-1.4c-.31-.61-.47-1.34-.47-2.2s.16-1.59,.47-2.2c.31-.61,.76-1.07,1.34-1.4,.58-.32,1.28-.49,2.08-.49Zm0,1.62c-.38,0-.71,.09-.97,.28-.26,.18-.46,.46-.6,.82-.14,.36-.2,.82-.2,1.36s.07,.99,.2,1.36c.14,.37,.34,.64,.6,.83,.26,.18,.59,.28,.97,.28s.71-.09,.97-.28c.26-.18,.46-.46,.59-.83,.14-.37,.2-.82,.2-1.36s-.07-1-.2-1.36c-.14-.36-.33-.64-.59-.82-.26-.18-.58-.28-.97-.28Z"/><path class="cls-5" d="M130.72,27.61c.94,0,1.68,.22,2.2,.67,.52,.44,.79,1.03,.79,1.77,0,.81-.26,1.42-.78,1.85-.52,.42-1.25,.64-2.2,.64l-.19,.11h-1.57v2.89h-2.03v-7.92h3.78Zm-.29,3.56c.4,0,.7-.08,.9-.24,.2-.16,.3-.42,.3-.77s-.1-.6-.3-.76c-.2-.16-.5-.24-.9-.24h-1.46v2h1.46Zm1.21,.43l2.53,3.92h-2.28l-2.03-3.47,1.78-.46Z"/><path class="cls-5" d="M138.84,27.61c.65,0,1.2,.1,1.66,.31s.8,.51,1.04,.9c.24,.39,.36,.87,.36,1.43s-.12,1.04-.36,1.43c-.24,.39-.59,.69-1.04,.9s-1.01,.31-1.66,.31h-1.57v2.64h-2.06v-7.92h3.64Zm-.32,3.73c.43,0,.76-.09,.98-.27,.22-.18,.33-.45,.33-.82s-.11-.64-.33-.82c-.22-.18-.55-.27-.98-.27h-1.25v2.18h1.25Z"/></g><g><path class="cls-5" d="M73.5,47.07h3.37v.77h-4.31v-7.11h.94v6.34Z"/><path class="cls-5" d="M81.05,47.84c-.05-.1-.09-.29-.13-.56-.42,.44-.92,.65-1.5,.65-.52,0-.95-.15-1.28-.44-.33-.29-.5-.67-.5-1.12,0-.55,.21-.98,.63-1.28,.42-.3,1.01-.46,1.76-.46h.88v-.42c0-.32-.09-.57-.28-.75-.19-.19-.47-.28-.83-.28-.32,0-.59,.08-.81,.24s-.33,.36-.33,.59h-.91c0-.26,.09-.52,.28-.76,.19-.25,.44-.44,.76-.58,.32-.14,.67-.21,1.06-.21,.61,0,1.09,.15,1.43,.46,.34,.3,.52,.72,.54,1.26v2.43c0,.49,.06,.87,.19,1.16v.08h-.95Zm-1.5-.69c.28,0,.55-.07,.81-.22s.44-.34,.55-.57v-1.08h-.71c-1.11,0-1.66,.32-1.66,.97,0,.28,.09,.5,.28,.66s.43,.24,.73,.24Z"/><path class="cls-5" d="M87.83,47.2c.32,0,.6-.1,.84-.29s.37-.44,.4-.73h.85c-.02,.3-.12,.59-.31,.86s-.45,.49-.77,.65c-.32,.16-.66,.24-1.02,.24-.72,0-1.29-.24-1.72-.72-.42-.48-.64-1.14-.64-1.97v-.15c0-.51,.09-.97,.28-1.37s.46-.71,.81-.93c.35-.22,.77-.33,1.25-.33,.59,0,1.08,.18,1.48,.53,.39,.35,.6,.82,.63,1.38h-.85c-.03-.34-.16-.62-.39-.84-.23-.22-.52-.33-.86-.33-.46,0-.81,.17-1.07,.5-.25,.33-.38,.81-.38,1.43v.17c0,.61,.12,1.08,.38,1.41s.61,.49,1.07,.49Z"/><path class="cls-5" d="M90.7,45.15c0-.52,.1-.98,.31-1.4,.2-.41,.49-.73,.85-.96,.36-.22,.78-.34,1.24-.34,.72,0,1.3,.25,1.75,.75s.67,1.16,.67,1.99v.06c0,.51-.1,.98-.29,1.38-.2,.41-.48,.73-.84,.96s-.79,.34-1.26,.34c-.72,0-1.3-.25-1.74-.75s-.67-1.16-.67-1.98v-.06Zm.91,.11c0,.59,.14,1.06,.41,1.41,.27,.35,.63,.53,1.09,.53s.82-.18,1.09-.54c.27-.36,.41-.86,.41-1.51,0-.58-.14-1.05-.41-1.41-.28-.36-.64-.54-1.1-.54s-.81,.18-1.08,.53-.41,.86-.41,1.52Z"/><path class="cls-5" d="M97.5,42.55l.03,.66c.4-.51,.93-.76,1.58-.76,1.12,0,1.68,.63,1.69,1.89v3.49h-.9v-3.5c0-.38-.09-.66-.26-.84s-.44-.27-.8-.27c-.29,0-.55,.08-.77,.23s-.39,.36-.52,.62v3.76h-.9v-5.28h.85Z"/><path class="cls-5" d="M102.61,47.84v-4.58h-.83v-.7h.83v-.54c0-.57,.15-1,.45-1.31s.73-.46,1.28-.46c.21,0,.42,.03,.62,.08l-.05,.73c-.15-.03-.32-.04-.49-.04-.29,0-.52,.09-.68,.26-.16,.17-.24,.42-.24,.74v.56h1.13v.7h-1.13v4.58h-.9Z"/><path class="cls-5" d="M105.64,41.15c0-.15,.04-.27,.13-.37,.09-.1,.22-.15,.4-.15s.31,.05,.4,.15,.14,.22,.14,.37-.05,.27-.14,.37-.22,.15-.4,.15-.31-.05-.4-.15c-.09-.1-.13-.22-.13-.37Zm.98,6.68h-.9v-5.28h.9v5.28Z"/><path class="cls-5" d="M111.32,47.84c-.05-.1-.09-.29-.13-.56-.42,.44-.92,.65-1.5,.65-.52,0-.95-.15-1.28-.44-.33-.29-.5-.67-.5-1.12,0-.55,.21-.98,.63-1.28,.42-.3,1.01-.46,1.76-.46h.88v-.42c0-.32-.09-.57-.28-.75-.19-.19-.47-.28-.83-.28-.32,0-.59,.08-.81,.24s-.33,.36-.33,.59h-.91c0-.26,.09-.52,.28-.76,.19-.25,.44-.44,.76-.58,.32-.14,.67-.21,1.06-.21,.61,0,1.09,.15,1.43,.46,.34,.3,.52,.72,.54,1.26v2.43c0,.49,.06,.87,.19,1.16v.08h-.95Zm-1.5-.69c.28,0,.55-.07,.81-.22s.44-.34,.55-.57v-1.08h-.71c-1.11,0-1.66,.32-1.66,.97,0,.28,.09,.5,.28,.66s.43,.24,.73,.24Z"/><path class="cls-5" d="M114.35,42.55l.03,.66c.4-.51,.93-.76,1.58-.76,1.12,0,1.68,.63,1.69,1.89v3.49h-.9v-3.5c0-.38-.09-.66-.26-.84s-.44-.27-.8-.27c-.29,0-.55,.08-.77,.23s-.39,.36-.52,.62v3.76h-.9v-5.28h.85Z"/><path class="cls-5" d="M121.14,47.2c.32,0,.6-.1,.84-.29s.37-.44,.4-.73h.85c-.02,.3-.12,.59-.31,.86s-.45,.49-.77,.65c-.32,.16-.66,.24-1.02,.24-.72,0-1.29-.24-1.72-.72-.42-.48-.64-1.14-.64-1.97v-.15c0-.51,.09-.97,.28-1.37s.46-.71,.81-.93c.35-.22,.77-.33,1.25-.33,.59,0,1.08,.18,1.48,.53,.39,.35,.6,.82,.63,1.38h-.85c-.03-.34-.16-.62-.39-.84-.23-.22-.52-.33-.86-.33-.46,0-.81,.17-1.07,.5-.25,.33-.38,.81-.38,1.43v.17c0,.61,.12,1.08,.38,1.41s.61,.49,1.07,.49Z"/><path class="cls-5" d="M126.44,47.93c-.72,0-1.3-.24-1.75-.71-.45-.47-.67-1.1-.67-1.89v-.17c0-.52,.1-.99,.3-1.4,.2-.41,.48-.73,.84-.97,.36-.23,.75-.35,1.17-.35,.69,0,1.22,.23,1.6,.68s.57,1.1,.57,1.94v.38h-3.58c.01,.52,.17,.94,.46,1.26,.29,.32,.66,.48,1.11,.48,.32,0,.59-.07,.81-.2s.42-.3,.58-.52l.55,.43c-.44,.68-1.11,1.02-1.99,1.02Zm-.11-4.74c-.36,0-.67,.13-.92,.4-.25,.26-.4,.64-.46,1.12h2.65v-.07c-.03-.46-.15-.81-.37-1.07-.22-.25-.52-.38-.9-.38Z"/><path class="cls-5" d="M135.29,47.84c-.05-.1-.09-.29-.13-.56-.42,.44-.92,.65-1.5,.65-.52,0-.95-.15-1.28-.44-.33-.29-.5-.67-.5-1.12,0-.55,.21-.98,.63-1.28,.42-.3,1.01-.46,1.76-.46h.88v-.42c0-.32-.09-.57-.28-.75-.19-.19-.47-.28-.83-.28-.32,0-.59,.08-.81,.24s-.33,.36-.33,.59h-.91c0-.26,.09-.52,.28-.76,.19-.25,.44-.44,.76-.58,.32-.14,.67-.21,1.06-.21,.61,0,1.09,.15,1.43,.46,.34,.3,.52,.72,.54,1.26v2.43c0,.49,.06,.87,.19,1.16v.08h-.95Zm-1.5-.69c.28,0,.55-.07,.81-.22s.44-.34,.55-.57v-1.08h-.71c-1.11,0-1.66,.32-1.66,.97,0,.28,.09,.5,.28,.66s.43,.24,.73,.24Z"/><path class="cls-5" d="M143.2,47.31c-.35,.41-.87,.62-1.55,.62-.56,0-.99-.16-1.29-.49-.29-.33-.44-.81-.45-1.45v-3.44h.9v3.41c0,.8,.33,1.2,.98,1.2,.69,0,1.15-.26,1.38-.77v-3.84h.9v5.28h-.86l-.02-.52Z"/><path class="cls-5" d="M146.31,42.55l.03,.66c.4-.51,.93-.76,1.58-.76,1.12,0,1.68,.63,1.69,1.89v3.49h-.9v-3.5c0-.38-.09-.66-.26-.84s-.44-.27-.8-.27c-.29,0-.55,.08-.77,.23s-.39,.36-.52,.62v3.76h-.9v-5.28h.85Z"/><path class="cls-5" d="M154.3,42.55l.03,.66c.4-.51,.93-.76,1.58-.76,1.12,0,1.68,.63,1.69,1.89v3.49h-.9v-3.5c0-.38-.09-.66-.26-.84s-.44-.27-.8-.27c-.29,0-.55,.08-.77,.23s-.39,.36-.52,.62v3.76h-.9v-5.28h.85Z"/><path class="cls-5" d="M158.73,45.15c0-.52,.1-.98,.31-1.4,.2-.41,.49-.73,.85-.96,.36-.22,.78-.34,1.24-.34,.72,0,1.3,.25,1.75,.75s.67,1.16,.67,1.99v.06c0,.51-.1,.98-.29,1.38-.2,.41-.48,.73-.84,.96s-.79,.34-1.26,.34c-.72,0-1.3-.25-1.74-.75s-.67-1.16-.67-1.98v-.06Zm.91,.11c0,.59,.14,1.06,.41,1.41,.27,.35,.63,.53,1.09,.53s.82-.18,1.09-.54c.27-.36,.41-.86,.41-1.51,0-.58-.14-1.05-.41-1.41-.28-.36-.64-.54-1.1-.54s-.81,.18-1.08,.53-.41,.86-.41,1.52Z"/><path class="cls-5" d="M165.52,42.55l.02,.59c.39-.46,.91-.68,1.57-.68,.74,0,1.24,.28,1.51,.85,.18-.25,.4-.46,.69-.62,.28-.16,.61-.23,1-.23,1.16,0,1.75,.61,1.77,1.84v3.54h-.9v-3.49c0-.38-.09-.66-.26-.85-.17-.19-.46-.28-.87-.28-.33,0-.61,.1-.83,.3-.22,.2-.35,.47-.39,.81v3.51h-.91v-3.46c0-.77-.38-1.15-1.13-1.15-.59,0-1,.25-1.22,.76v3.86h-.9v-5.28h.85Z"/></g><path class="cls-4" d="M89.36,23.26h6.09s27.53-13.36,40.2-14.23c0,0,15.57-2.34,19.76,6.46,0,0,3.08,5.4-1.11,13.41l-6.8,10.37,7.8-9.67s10.44-12.15,5.5-20.95c0,0-4.31-8.17-20.47-5.68,0,0-12.48,1.52-23.81,6.32-12.58,5.32-27.16,13.97-27.16,13.97Z"/><path class="cls-3" d="M56.98,40.42h-8.19s-6.72,3.71-19.39,4.57c0,0-15.57,2.34-19.76-6.46,0,0-3.08-5.4,1.11-13.41l6.8-10.37-7.8,9.67S-.68,36.56,4.26,45.37c0,0,4.31,8.17,20.47,5.68,0,0,12.42-1.68,23.81-6.32,9.24-3.76,8.44-4.31,8.44-4.31Z"/><path class="cls-1" d="M70.04,40.41h-7.17s-21.97,11.6-34.9,12.09c0,0,7,.28,19.29-3.09,12.44-3.42,21.78-7.58,22.79-9Z"/><path class="cls-2" d="M100.96,23.25h7.17s21.97-11.6,34.9-12.09c0,0-7-.28-19.29,3.09s-21.78,7.58-22.79,9Z"/></svg>